# xmcd CD database file
#
# Track frame offsets:
#	150
#	10982
#	22608
#	35102
#	45225
#	58047
#	72307
#	83781
#	96395
#	108663
#	121222
#	133312
#	143337
#	154185
#	164652
#	176946
#	188448
#	199895
#	212272
#	223518
#	235410
#	246119
#	258183
#	268218
#
# Disc length: 3751 seconds
#
# Revision: 3
# Processed by: cddbd v1.5.2PL0 Copyright (c) Steve Scherf et al.
# Submitted via: CDex 1.40Beta9
#
DISCID=580ea518
DTITLE=Various Artist - The Complete Motown Singles Volume 1 [CD6]
DYEAR=2004
DGENRE=R&B/Soul
TTITLE0=Eddie Holland - Jamie
TTITLE1=Eddie Holland - Take A Chance On Me
TTITLE2=The Valadiers - Greetings (This Is Uncle Sam)
TTITLE3=The Valadiers - Take A Chance
TTITLE4=Mable John - Actions Speak Louder Than Words
TTITLE5=Mable John - Take Me
TTITLE6=Sammy Ward - What Makes You Love Him [second version]
TTITLE7=Sammy Ward - Don't Take It Away
TTITLE8=The Temptations - Check Yourself
TTITLE9=The Temptations - Your Wonderful Love
TTITLE10=Bob Kayli - Small Sad Sam
TTITLE11=Bob Kayli - Tie Me Tight
TTITLE12=Don McKenzie - Whose Heart (Are You Going To Break Now)
TTITLE13=Don McKenzie - I'll Call You
TTITLE14=The Twistin' Kings - Xmas Twist
TTITLE15=The Twistin' Kings - White House Twist
TTITLE16=Mickey Woods - Please Mr. Kennedy
TTITLE17=Mickey Woods - (They Call Me) Cupid
TTITLE18=The Marvelettes - Twistin' Postman
TTITLE19=The Marvelettes - I Want A Guy
TTITLE20=The Miracles - What's So Good About Good Bye
TTITLE21=The Miracles - I've Been Good To You
TTITLE22=The Twistin' Kings - Congo (Part 1)
TTITLE23=The Twistin' Kings - Congo (Part 2)
EXTD=YEAR: 2004
EXTT0=
EXTT1=
EXTT2=
EXTT3=
EXTT4=
EXTT5=
EXTT6=
EXTT7=
EXTT8=
EXTT9=
EXTT10=
EXTT11=
EXTT12=
EXTT13=
EXTT14=
EXTT15=
EXTT16=
EXTT17=
EXTT18=
EXTT19=
EXTT20=
EXTT21=
EXTT22=
EXTT23=
PLAYORDER=
